<svg width="1540" height="412" viewBox="0 0 1540 412" fill="none" xmlns="http://www.w3.org/2000/svg">
<path d="M278.199 366.672C103.619 424.666 -88.4216 476.105 -101 477.456V487.591L438.461 542.208L1415.46 585L1731 414.957C1592.02 405.573 1526.12 409.689 1655.37 328.609C1784.63 247.529 1508.51 219.301 1494.07 171.075C1425.84 -56.7693 1335.85 0.985798 1305.79 23.0554C1271.94 47.9015 1212.71 102.164 1195.33 115.975C1051.3 230.463 773.741 408.538 815.813 204.938C868.404 -49.5635 721.39 112.924 609.799 196.449C498.208 279.975 343.763 344.891 278.199 366.672Z" fill="url(#paint0_linear)"/>
<defs>
<linearGradient id="paint0_linear" x1="-326" y1="316.555" x2="1491.8" y2="102.369" gradientUnits="userSpaceOnUse">
<stop stop-color="#386781"/>
<stop offset="0.0001" stop-color="#C4C4C4" stop-opacity="0"/>
<stop offset="1" stop-color="#386781"/>
</linearGradient>
</defs>
</svg>
