<svg width="1540" height="299" viewBox="0 0 1540 299" fill="none" xmlns="http://www.w3.org/2000/svg">
<path d="M257.5 346.806C92.4502 401.659 -89.1082 450.311 -101 451.589V461.175L409.015 512.832L1332.68 553.306L1631 392.476C1499.61 383.6 1437.3 387.493 1559.5 310.806C1681.7 234.119 1420.65 207.419 1407 161.806C1342.5 -53.6937 1257.42 0.932388 1229 21.8063C1197 45.3063 1141 96.6292 1124.57 109.692C988.399 217.977 725.993 386.405 765.769 193.835C815.489 -46.8783 676.5 106.806 571 185.806C465.5 264.806 319.485 326.206 257.5 346.806Z" fill="url(#paint0_linear)"/>
<defs>
<linearGradient id="paint0_linear" x1="1184.3" y1="282.847" x2="-94.8169" y2="344.034" gradientUnits="userSpaceOnUse">
<stop stop-color="#386781"/>
<stop offset="1" stop-color="#C4C4C4" stop-opacity="0"/>
</linearGradient>
</defs>
</svg>
